HIERARCHY
ROOT Hips
{
	OFFSET -0.001795 -0.223333 0.028219
	CHANNELS 6 Xposition Yposition Zposition Zrotation Yrotation Xrotation 
	JOINT LeftUpLeg
	{
		OFFSET 0.069520 -0.091406 -0.006815
		CHANNELS 3 Zrotation Yrotation Xrotation
		JOINT LeftLeg
		{
			OFFSET 0.034277 -0.375199 -0.004496
			CHANNELS 3 Zrotation Yrotation Xrotation
			JOINT LeftFoot
			{
				OFFSET -0.013596 -0.397961 -0.043693
				CHANNELS 3 Zrotation Yrotation Xrotation
				JOINT LeftToe
				{
					OFFSET 0.026358 -0.055791 0.119288
					CHANNELS 3 Zrotation Yrotation Xrotation
					End Site
					{
						OFFSET 0.000000 0.000000 0.000000
					}
				}
			}
		}
	}
	JOINT RightUpLeg
	{
		OFFSET -0.067670 -0.090522 -0.004320
		CHANNELS 3 Zrotation Yrotation Xrotation
		JOINT RightLeg
		{
			OFFSET -0.038290 -0.382569 -0.008850
			CHANNELS 3 Zrotation Yrotation Xrotation
			JOINT RightFoot
			{
				OFFSET 0.015774 -0.398415 -0.042312
				CHANNELS 3 Zrotation Yrotation Xrotation
				JOINT RightToe
				{
					OFFSET -0.025372 -0.048144 0.123348
					CHANNELS 3 Zrotation Yrotation Xrotation
					End Site
					{
						OFFSET 0.000000 0.000000 0.000000
					}
				}
			}
		}
	}
	JOINT Spine
	{
		OFFSET -0.002533 0.108963 -0.026696
		CHANNELS 3 Zrotation Yrotation Xrotation
		JOINT Spine1
		{
			OFFSET 0.005487 0.135180 0.001092
			CHANNELS 3 Zrotation Yrotation Xrotation
			JOINT Spine2
			{
				OFFSET 0.001457 0.052922 0.025425
				CHANNELS 3 Zrotation Yrotation Xrotation
				JOINT Neck
				{
					OFFSET -0.002778 0.213870 -0.042857
					CHANNELS 3 Zrotation Yrotation Xrotation
					JOINT Head
					{
						OFFSET 0.005152 0.064970 0.051349
						CHANNELS 3 Zrotation Yrotation Xrotation
						End Site
						{
							OFFSET 0.000000 0.000000 0.000000
						}
					}
				}
				JOINT LeftShoulder
				{
					OFFSET 0.078845 0.121749 -0.034090
					CHANNELS 3 Zrotation Yrotation Xrotation
					JOINT LeftArm
					{
						OFFSET 0.090977 0.030469 -0.008868
						CHANNELS 3 Zrotation Yrotation Xrotation
						JOINT LeftForeArm
						{
							OFFSET 0.259612 -0.012772 -0.027456
							CHANNELS 3 Zrotation Yrotation Xrotation
							JOINT LeftHand
							{
								OFFSET 0.249234 0.008986 -0.001171
								CHANNELS 3 Zrotation Yrotation Xrotation
								End Site
								{
									OFFSET 0.000000 0.000000 0.000000
								}
							}
						}
					}
				}
				JOINT RightShoulder
				{
					OFFSET -0.081759 0.118833 -0.038615
					CHANNELS 3 Zrotation Yrotation Xrotation
					JOINT RightArm
					{
						OFFSET -0.096012 0.032551 -0.009143
						CHANNELS 3 Zrotation Yrotation Xrotation
						JOINT RightForeArm
						{
							OFFSET -0.253742 -0.013329 -0.021401
							CHANNELS 3 Zrotation Yrotation Xrotation
							JOINT RightHand
							{
								OFFSET -0.255298 0.007772 -0.005559
								CHANNELS 3 Zrotation Yrotation Xrotation
								End Site
								{
									OFFSET 0.000000 0.000000 0.000000
								}
							}
						}
					}
				}
			}
		}
	}
}
MOTION
Frames: 15
Frame Time: 0.050000
0.055078 0.939681 0.042008 -4.410659 -14.800059 13.896001 9.174843 0.338380 -21.236040 -5.124017 1.560980 17.019415 7.855228 16.533710 0.383732 0.000000 0.000000 0.000000 0.996498 4.609458 -31.690370 -2.818801 2.226523 20.220994 2.414717 1.529863 5.892411 0.000000 0.000000 0.000000 3.427560 -0.793017 10.584889 0.609272 -0.235658 -2.132196 -8.815652 2.253965 4.046366 8.116020 -2.360472 -27.356835 0.000000 0.000000 0.000000 -0.742625 -31.263475 11.894347 8.619585 -67.116427 -8.687264 37.769675 -32.151122 -9.242443 0.000000 0.000000 0.000000 8.869724 18.806077 7.009434 35.668701 45.537195 9.421941 -46.323104 54.611667 -22.399373 0.000000 0.000000 0.000000 
0.056356 0.941915 0.040968 -4.782504 -14.373545 14.223288 9.436932 0.362003 -21.359227 -4.863196 1.425947 16.558398 7.430470 15.667197 0.265405 0.000000 0.000000 0.000000 1.249501 4.595762 -31.519138 -2.740674 2.060493 19.198618 3.095469 2.667945 6.563491 0.000000 0.000000 0.000000 3.732502 -0.858935 10.911195 0.770722 -0.313532 -3.718604 -8.341431 1.505444 5.265234 6.833374 -1.922061 -27.270551 0.000000 0.000000 0.000000 5.327955 -30.823757 10.189596 31.908593 -68.032656 -23.069621 46.981574 -16.749894 -5.878548 0.000000 0.000000 0.000000 6.871006 18.660678 6.720157 34.108367 49.608705 9.861259 -56.393719 49.414932 -25.192132 0.000000 0.000000 0.000000 
0.056590 0.944008 0.040504 -4.904316 -14.556951 14.699030 9.286986 0.352570 -21.767354 -4.378916 1.268514 16.250175 7.387007 15.578812 0.297668 0.000000 0.000000 0.000000 1.584770 4.711282 -31.708515 -2.949223 2.048000 18.638461 3.413406 3.223579 6.793591 0.000000 0.000000 0.000000 3.108493 -0.777051 11.027868 1.391777 -0.558874 -5.139142 -7.948167 1.174372 5.845210 6.096499 -1.647693 -27.432604 0.000000 0.000000 0.000000 11.260865 -30.851994 8.660444 48.715372 -65.248214 -31.746596 47.996831 -0.834633 0.282303 0.000000 0.000000 0.000000 6.444491 18.624899 6.615328 33.446775 52.285719 10.260634 -61.961765 46.863234 -26.609014 0.000000 0.000000 0.000000 
0.056364 0.944266 0.040385 -5.247606 -14.796203 14.937087 9.722539 0.461455 -21.792872 -4.472697 1.329386 16.516206 7.562252 15.970772 -0.070938 0.000000 0.000000 0.000000 2.003829 4.908230 -32.111751 -3.040623 2.125742 18.999666 3.617758 3.805700 6.647758 0.000000 0.000000 0.000000 2.715844 -0.726680 11.261069 1.842053 -0.732992 -5.389589 -7.176663 0.505018 5.363921 4.969387 -1.250642 -27.145661 0.000000 0.000000 0.000000 14.220726 -30.869856 7.920302 56.886571 -62.669821 -34.506519 46.180769 9.796546 4.301274 0.000000 0.000000 0.000000 6.306577 18.693930 6.509676 36.506277 54.367830 12.229169 -63.979623 47.046980 -28.009490 0.000000 0.000000 0.000000 
0.056110 0.941690 0.039783 -5.617790 -15.399225 14.474723 10.453777 0.697105 -22.141173 -5.052292 1.678125 18.326896 7.876297 16.611282 -0.297750 0.000000 0.000000 0.000000 2.822776 5.176554 -32.259571 -3.219560 2.382667 20.386176 3.621434 4.178140 6.149261 0.000000 0.000000 0.000000 2.647175 -0.728327 12.053175 2.245397 -0.890401 -5.876959 -7.121996 0.942292 5.783768 4.406969 -0.991087 -27.247456 0.000000 0.000000 0.000000 15.792464 -31.437648 7.612158 58.641662 -61.739784 -34.809729 41.769645 14.875609 5.499764 0.000000 0.000000 0.000000 6.422149 18.971826 6.635935 37.640032 55.461509 13.110928 -61.949139 44.853188 -25.453135 0.000000 0.000000 0.000000 
0.056115 0.934602 0.038205 -5.263456 -15.649297 13.769976 10.585907 0.817827 -22.955698 -5.649745 2.126029 20.972183 8.057110 17.037206 -1.249222 0.000000 0.000000 0.000000 2.302467 5.398225 -33.679080 -2.785574 2.715105 23.610325 3.317672 4.173661 5.321979 0.000000 0.000000 0.000000 2.854144 -0.784493 13.303220 1.469277 -0.603677 -4.881449 -6.574382 1.236696 5.059604 4.426152 -0.857657 -28.135424 0.000000 0.000000 0.000000 13.224152 -32.037537 8.500244 55.600217 -64.107176 -35.015145 39.034947 14.076636 4.826317 0.000000 0.000000 0.000000 5.471220 19.189998 6.718027 41.442355 57.301296 15.750024 -56.504001 43.145855 -21.727456 0.000000 0.000000 0.000000 
0.056401 0.925417 0.035924 -4.950125 -15.294218 13.131961 10.824468 0.971668 -24.389325 -5.940650 2.519502 24.163067 7.791786 16.499689 -2.581250 0.000000 0.000000 0.000000 1.551393 5.609145 -35.558319 -2.037169 2.899357 26.789003 2.617219 2.884055 4.880642 0.000000 0.000000 0.000000 3.342361 -0.893070 14.277647 1.099357 -0.457248 -4.558641 -6.547071 1.765578 5.711851 4.586679 -0.769234 -29.074323 0.000000 0.000000 0.000000 5.828019 -31.860830 10.460194 45.464742 -69.702971 -33.079822 38.989334 7.669042 2.840917 0.000000 0.000000 0.000000 5.987786 20.313290 7.301143 43.636580 58.002925 17.264439 -48.711776 40.808198 -16.901906 0.000000 0.000000 0.000000 
0.056388 0.918671 0.034230 -4.623207 -14.820088 12.731301 10.742805 0.977458 -25.188700 -6.030363 2.645666 25.517921 7.265490 15.307614 -2.794251 0.000000 0.000000 0.000000 0.663209 5.521869 -36.446398 -1.152365 2.807249 28.635802 2.266428 2.387028 4.482511 0.000000 0.000000 0.000000 3.469054 -0.942496 15.046717 0.946949 -0.391332 -3.259485 -6.797186 3.263659 5.432008 6.418628 -1.276548 -29.674291 0.000000 0.000000 0.000000 -1.881096 -31.698413 12.368101 16.560644 -72.645748 -15.445318 38.079930 -2.299836 -0.195412 0.000000 0.000000 0.000000 6.937446 20.071975 7.545595 47.373502 57.908783 19.572644 -40.481250 37.837104 -12.175812 0.000000 0.000000 0.000000 
0.056137 0.917880 0.033726 -4.495021 -13.716576 12.562833 10.735207 0.868169 -25.111848 -5.922053 2.487680 25.449578 6.833996 14.340276 -2.773217 0.000000 0.000000 0.000000 0.645883 5.361617 -36.257927 -1.181880 2.697141 28.368127 2.114345 1.849355 4.772303 0.000000 0.000000 0.000000 3.692995 -1.033858 15.931289 0.612811 -0.245880 -2.961909 -6.638478 4.049464 6.214949 7.628090 -1.646177 -29.955949 0.000000 0.000000 0.000000 -7.444389 -30.853632 13.265975 -9.567141 -69.760837 1.733338 33.953209 -9.927919 -2.177979 0.000000 0.000000 0.000000 8.644859 20.214389 7.984744 48.787015 56.287347 19.644287 -31.746652 34.997924 -8.192948 0.000000 0.000000 0.000000 
0.055594 0.919531 0.033836 -4.256994 -12.681944 12.878499 10.834991 0.764010 -24.813222 -5.359458 2.045069 23.994947 6.133558 12.811051 -2.572975 0.000000 0.000000 0.000000 0.389632 5.097562 -35.832443 -1.072335 2.483584 27.594132 1.759733 1.015782 4.795710 0.000000 0.000000 0.000000 3.415082 -1.016844 15.954349 0.784544 -0.311604 -2.729830 -6.917380 5.467960 6.613735 9.518198 -2.215399 -30.283623 0.000000 0.000000 0.000000 -10.823705 -29.717796 13.145958 -24.408314 -65.465813 9.719925 28.815389 -14.636804 -2.847791 0.000000 0.000000 0.000000 10.206675 19.760572 8.337256 49.776619 55.253322 19.820753 -27.426200 32.098546 -6.026597 0.000000 0.000000 0.000000 
0.055286 0.921706 0.033848 -4.115525 -11.564294 13.374700 10.709925 0.615268 -24.681620 -4.946203 1.717351 22.867048 5.648089 11.749763 -2.555097 0.000000 0.000000 0.000000 0.061157 4.879210 -35.738679 -0.810583 2.185600 26.477637 1.264155 -0.012015 4.619809 0.000000 0.000000 0.000000 3.267362 -1.026800 15.997256 0.719487 -0.277768 -2.576940 -6.831109 6.551957 6.886965 10.799254 -2.465603 -31.109724 0.000000 0.000000 0.000000 -11.053458 -29.116632 12.552416 -33.212831 -62.516426 13.633637 25.661887 -16.951647 -2.952206 0.000000 0.000000 0.000000 11.287316 19.716127 8.812083 49.442369 55.846549 20.108656 -26.679387 28.684563 -4.975020 0.000000 0.000000 0.000000 
0.055214 0.921885 0.033032 -3.832951 -10.012206 13.707011 10.382560 0.425890 -25.178702 -4.342524 1.360182 22.438493 5.118679 10.586534 -2.280961 0.000000 0.000000 0.000000 -0.195975 4.663939 -35.813926 -0.876539 2.092773 26.431870 0.826658 -0.885105 4.478625 0.000000 0.000000 0.000000 3.213317 -1.064383 16.062723 0.585094 -0.212723 -2.882038 -7.033795 7.873693 7.531295 12.098188 -2.648543 -32.065809 0.000000 0.000000 0.000000 -10.216873 -29.308372 12.050153 -36.260876 -61.281766 14.558003 24.582348 -19.514798 -3.327868 0.000000 0.000000 0.000000 11.282523 18.975450 8.906033 47.557291 56.213967 19.459417 -27.192666 25.875933 -4.365721 0.000000 0.000000 0.000000 
0.055514 0.921410 0.031707 -3.465715 -8.493263 14.068911 10.171604 0.280258 -26.096955 -3.833061 1.059714 22.139922 4.575431 9.374245 -2.242201 0.000000 0.000000 0.000000 -0.747755 4.420117 -36.193720 -0.659913 1.918561 26.544579 0.344500 -1.885279 4.373662 0.000000 0.000000 0.000000 3.113618 -1.101398 16.322348 0.306499 -0.084946 -3.282658 -7.270685 8.634510 8.238399 12.553869 -2.518149 -33.000877 0.000000 0.000000 0.000000 -9.249389 -29.633634 11.744561 -36.032349 -61.677629 14.320035 26.537139 -21.502497 -4.108787 0.000000 0.000000 0.000000 10.570333 18.926627 9.103425 46.012985 57.362586 19.364024 -27.948068 23.550168 -3.935294 0.000000 0.000000 0.000000 
0.055659 0.920110 0.030377 -3.288299 -7.371093 14.245673 9.981214 0.179491 -27.288854 -3.433014 0.863672 22.617916 4.017993 8.024714 -2.741089 0.000000 0.000000 0.000000 -0.856604 4.288327 -36.334906 -0.669300 1.869258 26.884585 -0.061079 -2.314447 3.498774 0.000000 0.000000 0.000000 3.051756 -1.142286 16.759004 -0.048402 0.072297 -3.610139 -7.208531 9.519331 8.573244 12.964433 -2.306252 -34.281835 0.000000 0.000000 0.000000 -8.735848 -29.932442 11.533175 -36.061192 -61.936468 14.205634 28.177592 -24.585315 -5.168035 0.000000 0.000000 0.000000 9.773756 18.566933 9.069110 45.639245 57.952890 19.658959 -28.999251 22.411931 -3.788499 0.000000 0.000000 0.000000 
0.055500 0.919315 0.029523 -3.046531 -5.993114 14.585910 9.818950 0.038904 -28.226457 -3.165612 0.679693 22.665565 3.812006 7.586790 -2.539823 0.000000 0.000000 0.000000 -1.139423 4.094052 -36.566395 -0.421963 1.663862 26.646993 -0.325774 -2.728827 3.197120 0.000000 0.000000 0.000000 3.138873 -1.204393 16.765958 -0.163885 0.129407 -3.654503 -7.456574 9.631406 8.714889 13.441667 -2.286812 -34.952817 0.000000 0.000000 0.000000 -8.956101 -30.288083 11.579060 -35.782681 -62.291961 14.083599 29.150630 -26.390588 -5.843861 0.000000 0.000000 0.000000 9.052802 18.814395 9.211972 45.395561 58.799693 20.128734 -29.325535 21.846412 -3.686958 0.000000 0.000000 0.000000 
